<svg xmlns="http://www.w3.org/2000/svg" width="800" height="520" viewBox="0 0 800 520" role="img" aria-label="The birthday paradox demo image in dark mode">
  <rect width="800" height="520" fill="#000000"/>
  <rect x="82" y="74" width="636" height="372" rx="30" fill="#171717" stroke="#1e3a8a" stroke-width="2"/>
  <g transform="translate(165.0,213.4) scale(4.7974)" fill="#e5e7eb" style="color:#e5e7eb"><path d="M6.24 6.64C6.24 5.66 5.25 4.78 3.88 4.78L0.35 4.78L0.35 5.09L0.59 5.09C1.36 5.09 1.38 5.2 1.38 5.56L1.38 10.83C1.38 11.19 1.36 11.3 0.59 11.3L0.35 11.3L0.35 11.61C0.7 11.58 1.44 11.58 1.82 11.58C2.2 11.58 2.95 11.58 3.3 11.61L3.3 11.3L3.06 11.3C2.29 11.3 2.27 11.19 2.27 10.83L2.27 8.45L3.96 8.45C5.16 8.45 6.24 7.64 6.24 6.64ZM5.21 6.64C5.21 7.11 5.21 8.19 3.62 8.19L2.24 8.19L2.24 5.49C2.24 5.16 2.26 5.09 2.73 5.09L3.62 5.09C5.21 5.09 5.21 6.15 5.21 6.64Z"/><path d="M17.35 8.14C17.35 8.03 17.26 7.94 17.15 7.94L10.89 7.94C10.78 7.94 10.69 8.03 10.69 8.14C10.69 8.25 10.78 8.34 10.89 8.34L17.15 8.34C17.26 8.34 17.35 8.25 17.35 8.14ZM17.35 10.08C17.35 9.97 17.26 9.88 17.15 9.88L10.89 9.88C10.78 9.88 10.69 9.97 10.69 10.08C10.69 10.19 10.78 10.28 10.89 10.28L17.15 10.28C17.26 10.28 17.35 10.19 17.35 10.08Z"/><path d="M25.42 11.61L25.42 11.3L25.1 11.3C24.2 11.3 24.17 11.19 24.17 10.82L24.17 5.21C24.17 4.97 24.17 4.95 23.94 4.95C23.32 5.59 22.44 5.59 22.12 5.59L22.12 5.9C22.32 5.9 22.91 5.9 23.43 5.64L23.43 10.82C23.43 11.18 23.4 11.3 22.5 11.3L22.18 11.3L22.18 11.61C22.53 11.58 23.4 11.58 23.8 11.58C24.2 11.58 25.07 11.58 25.42 11.61Z"/><path d="M32.31 9.74L32.31 9.16L29.66 9.16L29.66 9.74Z"/><rect x="36.2" y="8.91" width="61.77" height="0.4"/><path d="M63.54 4.5C63.54 3.83 63.03 3.19 62.17 3.02C62.85 2.8 63.32 2.22 63.32 1.57C63.32 0.9 62.6 0.44 61.81 0.44C60.98 0.44 60.36 0.93 60.36 1.56C60.36 1.83 60.54 1.98 60.78 1.98C61.03 1.98 61.2 1.8 61.2 1.57C61.2 1.16 60.81 1.16 60.69 1.16C60.94 0.75 61.48 0.65 61.78 0.65C62.12 0.65 62.57 0.83 62.57 1.57C62.57 1.66 62.55 2.14 62.34 2.5C62.09 2.89 61.81 2.92 61.61 2.93C61.54 2.94 61.34 2.95 61.29 2.95C61.22 2.96 61.16 2.97 61.16 3.05C61.16 3.14 61.22 3.14 61.36 3.14L61.72 3.14C62.39 3.14 62.7 3.7 62.7 4.5C62.7 5.62 62.13 5.85 61.77 5.85C61.42 5.85 60.8 5.72 60.52 5.23C60.8 5.27 61.06 5.09 61.06 4.78C61.06 4.49 60.84 4.32 60.6 4.32C60.4 4.32 60.14 4.44 60.14 4.8C60.14 5.54 60.9 6.08 61.8 6.08C62.8 6.08 63.54 5.34 63.54 4.5Z"/><path d="M67.64 4.23C67.64 3.19 66.91 2.4 66 2.4C65.44 2.4 65.14 2.82 64.98 3.21L64.98 3.02C64.98 0.94 65.99 0.65 66.41 0.65C66.61 0.65 66.95 0.7 67.13 0.98C67.01 0.98 66.68 0.98 66.68 1.34C66.68 1.6 66.88 1.72 67.06 1.72C67.19 1.72 67.44 1.65 67.44 1.33C67.44 0.84 67.08 0.44 66.4 0.44C65.35 0.44 64.24 1.5 64.24 3.31C64.24 5.5 65.19 6.08 65.95 6.08C66.86 6.08 67.64 5.31 67.64 4.23ZM66.9 4.22C66.9 4.62 66.9 5.03 66.76 5.32C66.52 5.81 66.14 5.85 65.95 5.85C65.44 5.85 65.19 5.36 65.14 5.24C64.99 4.85 64.99 4.2 64.99 4.05C64.99 3.41 65.26 2.59 65.99 2.59C66.13 2.59 66.5 2.59 66.76 3.1C66.9 3.4 66.9 3.82 66.9 4.22Z"/><path d="M71.68 4.26C71.68 3.28 71 2.46 70.12 2.46C69.72 2.46 69.37 2.59 69.08 2.88L69.08 1.28C69.24 1.33 69.51 1.39 69.77 1.39C70.78 1.39 71.36 0.64 71.36 0.53C71.36 0.48 71.33 0.44 71.27 0.44C71.27 0.44 71.25 0.44 71.21 0.47C71.05 0.54 70.64 0.71 70.09 0.71C69.77 0.71 69.39 0.65 69 0.48C68.94 0.45 68.9 0.45 68.9 0.45C68.82 0.45 68.82 0.52 68.82 0.65L68.82 3.08C68.82 3.22 68.82 3.29 68.94 3.29C69 3.29 69.01 3.26 69.04 3.21C69.13 3.08 69.44 2.64 70.1 2.64C70.53 2.64 70.73 3.02 70.8 3.17C70.93 3.47 70.95 3.79 70.95 4.2C70.95 4.49 70.95 4.98 70.75 5.32C70.55 5.64 70.25 5.85 69.87 5.85C69.27 5.85 68.81 5.42 68.67 4.94C68.69 4.94 68.72 4.95 68.81 4.95C69.08 4.95 69.22 4.75 69.22 4.55C69.22 4.35 69.08 4.15 68.81 4.15C68.69 4.15 68.4 4.21 68.4 4.58C68.4 5.29 68.97 6.08 69.89 6.08C70.84 6.08 71.68 5.3 71.68 4.26Z"/><path d="M73.67 0.45C73.67 0.18 73.45 0.03 73.23 0.03C73.02 0.03 72.8 0.18 72.8 0.45L73.12 4.18C73.13 4.31 73.14 4.37 73.23 4.37C73.32 4.37 73.34 4.33 73.35 4.19ZM73.67 5.47C73.67 5.23 73.47 5.03 73.23 5.03C73 5.03 72.8 5.23 72.8 5.47C72.8 5.71 73 5.9 73.23 5.9C73.47 5.9 73.67 5.71 73.67 5.47Z"/><path d="M42.15 16.22C42.15 15.54 41.63 14.9 40.78 14.73C41.45 14.51 41.93 13.94 41.93 13.29C41.93 12.62 41.2 12.16 40.42 12.16C39.59 12.16 38.97 12.65 38.97 13.27C38.97 13.54 39.15 13.7 39.38 13.7C39.64 13.7 39.8 13.52 39.8 13.28C39.8 12.87 39.42 12.87 39.29 12.87C39.55 12.47 40.09 12.36 40.38 12.36C40.72 12.36 41.17 12.54 41.17 13.28C41.17 13.38 41.16 13.85 40.94 14.21C40.7 14.61 40.42 14.63 40.21 14.64C40.15 14.65 39.95 14.67 39.89 14.67C39.83 14.67 39.77 14.68 39.77 14.76C39.77 14.85 39.83 14.85 39.97 14.85L40.33 14.85C41 14.85 41.3 15.41 41.3 16.22C41.3 17.33 40.74 17.57 40.38 17.57C40.02 17.57 39.41 17.43 39.12 16.95C39.41 16.99 39.66 16.81 39.66 16.49C39.66 16.2 39.44 16.03 39.2 16.03C39.01 16.03 38.74 16.15 38.74 16.51C38.74 17.26 39.51 17.8 40.4 17.8C41.4 17.8 42.15 17.05 42.15 16.22Z"/><path d="M46.25 15.94C46.25 14.9 45.52 14.12 44.61 14.12C44.05 14.12 43.75 14.53 43.58 14.93L43.58 14.73C43.58 12.66 44.6 12.36 45.02 12.36C45.21 12.36 45.56 12.41 45.74 12.69C45.62 12.69 45.29 12.69 45.29 13.06C45.29 13.31 45.48 13.44 45.67 13.44C45.8 13.44 46.04 13.36 46.04 13.04C46.04 12.55 45.68 12.16 45 12.16C43.95 12.16 42.84 13.21 42.84 15.03C42.84 17.22 43.8 17.8 44.56 17.8C45.47 17.8 46.25 17.03 46.25 15.94ZM45.51 15.94C45.51 16.33 45.51 16.74 45.37 17.04C45.12 17.53 44.75 17.57 44.56 17.57C44.04 17.57 43.8 17.08 43.75 16.95C43.6 16.57 43.6 15.91 43.6 15.76C43.6 15.12 43.86 14.3 44.6 14.3C44.73 14.3 45.11 14.3 45.36 14.81C45.51 15.12 45.51 15.53 45.51 15.94Z"/><path d="M50.28 15.97C50.28 14.99 49.61 14.17 48.72 14.17C48.33 14.17 47.98 14.3 47.68 14.59L47.68 12.99C47.85 13.04 48.12 13.1 48.38 13.1C49.39 13.1 49.96 12.35 49.96 12.25C49.96 12.2 49.94 12.16 49.88 12.16C49.88 12.16 49.86 12.16 49.81 12.18C49.65 12.25 49.25 12.42 48.7 12.42C48.37 12.42 47.99 12.36 47.61 12.19C47.54 12.16 47.51 12.16 47.51 12.16C47.43 12.16 47.43 12.23 47.43 12.36L47.43 14.79C47.43 14.94 47.43 15 47.54 15C47.6 15 47.62 14.98 47.65 14.93C47.74 14.8 48.04 14.35 48.71 14.35C49.13 14.35 49.34 14.73 49.4 14.88C49.54 15.18 49.55 15.5 49.55 15.91C49.55 16.2 49.55 16.69 49.36 17.04C49.16 17.36 48.86 17.57 48.48 17.57C47.88 17.57 47.41 17.13 47.27 16.65C47.3 16.66 47.32 16.67 47.41 16.67C47.68 16.67 47.82 16.46 47.82 16.26C47.82 16.07 47.68 15.86 47.41 15.86C47.3 15.86 47.01 15.92 47.01 16.3C47.01 17 47.58 17.8 48.49 17.8C49.45 17.8 50.28 17.01 50.28 15.97Z"/><path d="M54.23 14.64L54.23 14.46C53.93 14.46 53.79 14.46 53.78 14.29L53.78 13.19C53.78 12.7 53.78 12.52 53.6 12.32C53.52 12.22 53.33 12.1 53 12.1C52.58 12.1 52.31 12.35 52.15 12.71L52.15 12.1L51.34 12.17L51.34 12.34C51.74 12.34 51.79 12.38 51.79 12.67L51.79 14.2C51.79 14.46 51.73 14.46 51.34 14.46L51.34 14.64L51.99 14.62L52.63 14.64L52.63 14.46C52.25 14.46 52.19 14.46 52.19 14.2L52.19 13.15C52.19 12.55 52.59 12.23 52.96 12.23C53.32 12.23 53.39 12.54 53.39 12.87L53.39 14.2C53.39 14.46 53.32 14.46 52.94 14.46L52.94 14.64L53.59 14.62Z"/><path d="M58.65 15.57C58.65 15.33 58.45 15.13 58.21 15.13C57.98 15.13 57.78 15.33 57.78 15.57C57.78 15.81 57.98 16 58.21 16C58.45 16 58.65 15.81 58.65 15.57Z"/><path d="M64.8 19.57C64.8 19.54 64.78 19.52 64.76 19.5C63.91 18.86 63.35 17.22 63.35 15.91L63.35 15.22C63.35 13.91 63.91 12.27 64.76 11.63C64.78 11.62 64.8 11.59 64.8 11.57C64.8 11.52 64.76 11.48 64.72 11.48C64.7 11.48 64.68 11.49 64.67 11.5C63.76 12.18 62.9 13.82 62.9 15.22L62.9 15.91C62.9 17.31 63.76 18.95 64.67 19.63C64.68 19.64 64.7 19.65 64.72 19.65C64.76 19.65 64.8 19.61 64.8 19.57Z"/><path d="M69.01 16.22C69.01 15.54 68.5 14.9 67.64 14.73C68.32 14.51 68.79 13.94 68.79 13.29C68.79 12.62 68.07 12.16 67.28 12.16C66.45 12.16 65.83 12.65 65.83 13.27C65.83 13.54 66.01 13.7 66.25 13.7C66.5 13.7 66.67 13.52 66.67 13.28C66.67 12.87 66.28 12.87 66.16 12.87C66.41 12.47 66.95 12.36 67.25 12.36C67.59 12.36 68.04 12.54 68.04 13.28C68.04 13.38 68.02 13.85 67.81 14.21C67.56 14.61 67.28 14.63 67.08 14.64C67.01 14.65 66.81 14.67 66.76 14.67C66.69 14.67 66.63 14.68 66.63 14.76C66.63 14.85 66.69 14.85 66.83 14.85L67.19 14.85C67.86 14.85 68.17 15.41 68.17 16.22C68.17 17.33 67.6 17.57 67.24 17.57C66.89 17.57 66.27 17.43 65.99 16.95C66.27 16.99 66.53 16.81 66.53 16.49C66.53 16.2 66.31 16.03 66.07 16.03C65.87 16.03 65.61 16.15 65.61 16.51C65.61 17.26 66.37 17.8 67.27 17.8C68.27 17.8 69.01 17.05 69.01 16.22Z"/><path d="M73.11 15.94C73.11 14.9 72.38 14.12 71.47 14.12C70.91 14.12 70.61 14.53 70.45 14.93L70.45 14.73C70.45 12.66 71.46 12.36 71.88 12.36C72.08 12.36 72.42 12.41 72.6 12.69C72.48 12.69 72.15 12.69 72.15 13.06C72.15 13.31 72.35 13.44 72.53 13.44C72.66 13.44 72.91 13.36 72.91 13.04C72.91 12.55 72.55 12.16 71.87 12.16C70.82 12.16 69.71 13.21 69.71 15.03C69.71 17.22 70.66 17.8 71.42 17.8C72.33 17.8 73.11 17.03 73.11 15.94ZM72.37 15.94C72.37 16.33 72.37 16.74 72.23 17.04C71.99 17.53 71.61 17.57 71.42 17.57C70.91 17.57 70.66 17.08 70.61 16.95C70.46 16.57 70.46 15.91 70.46 15.76C70.46 15.12 70.73 14.3 71.46 14.3C71.6 14.3 71.97 14.3 72.23 14.81C72.37 15.12 72.37 15.53 72.37 15.94Z"/><path d="M77.15 15.97C77.15 14.99 76.47 14.17 75.59 14.17C75.2 14.17 74.84 14.3 74.55 14.59L74.55 12.99C74.71 13.04 74.98 13.1 75.24 13.1C76.25 13.1 76.83 12.35 76.83 12.25C76.83 12.2 76.8 12.16 76.74 12.16C76.74 12.16 76.72 12.16 76.68 12.18C76.52 12.25 76.11 12.42 75.56 12.42C75.24 12.42 74.86 12.36 74.47 12.19C74.41 12.16 74.38 12.16 74.38 12.16C74.29 12.16 74.29 12.23 74.29 12.36L74.29 14.79C74.29 14.94 74.29 15 74.41 15C74.47 15 74.48 14.98 74.51 14.93C74.6 14.8 74.91 14.35 75.57 14.35C76 14.35 76.2 14.73 76.27 14.88C76.4 15.18 76.42 15.5 76.42 15.91C76.42 16.2 76.42 16.69 76.22 17.04C76.02 17.36 75.72 17.57 75.34 17.57C74.74 17.57 74.28 17.13 74.14 16.65C74.16 16.66 74.19 16.67 74.28 16.67C74.55 16.67 74.69 16.46 74.69 16.26C74.69 16.07 74.55 15.86 74.28 15.86C74.16 15.86 73.87 15.92 73.87 16.3C73.87 17 74.44 17.8 75.36 17.8C76.31 17.8 77.15 17.01 77.15 15.97Z"/><path d="M82.55 16.08L82.55 15.61L80.38 15.61L80.38 16.08Z"/><path d="M90.13 17.62L90.13 17.36C89.7 17.36 89.5 17.36 89.49 17.12L89.49 15.55C89.49 14.85 89.49 14.59 89.23 14.3C89.12 14.16 88.85 13.99 88.37 13.99C87.77 13.99 87.39 14.35 87.16 14.85L87.16 13.99L86 14.08L86 14.34C86.58 14.34 86.64 14.39 86.64 14.8L86.64 16.99C86.64 17.36 86.55 17.36 86 17.36L86 17.62L86.93 17.59L87.85 17.62L87.85 17.36C87.3 17.36 87.21 17.36 87.21 16.99L87.21 15.49C87.21 14.63 87.79 14.17 88.32 14.17C88.83 14.17 88.92 14.62 88.92 15.08L88.92 16.99C88.92 17.36 88.83 17.36 88.28 17.36L88.28 17.62L89.21 17.59Z"/><path d="M92.66 15.91L92.66 15.22C92.66 13.82 91.8 12.18 90.9 11.5C90.88 11.49 90.87 11.48 90.85 11.48C90.81 11.48 90.77 11.52 90.77 11.57C90.77 11.59 90.78 11.62 90.8 11.63C91.65 12.27 92.22 13.91 92.22 15.22L92.22 15.91C92.22 17.22 91.65 18.86 90.8 19.5C90.78 19.52 90.77 19.54 90.77 19.57C90.77 19.61 90.81 19.65 90.85 19.65C90.87 19.65 90.88 19.64 90.9 19.63C91.8 18.95 92.66 17.31 92.66 15.91Z"/><path d="M95.06 12.16C95.06 11.89 94.84 11.75 94.63 11.75C94.42 11.75 94.19 11.89 94.19 12.16L94.51 15.9C94.52 16.02 94.53 16.08 94.63 16.08C94.71 16.08 94.74 16.04 94.74 15.9ZM95.06 17.18C95.06 16.95 94.87 16.75 94.63 16.75C94.39 16.75 94.19 16.95 94.19 17.18C94.19 17.42 94.39 17.62 94.63 17.62C94.87 17.62 95.06 17.42 95.06 17.18Z"/></g>
</svg>
