<svg xmlns="http://www.w3.org/2000/svg" width="800" height="520" viewBox="0 0 800 520" role="img" aria-label="Article layout demo image in dark mode">
  <rect width="800" height="520" fill="#000000"/>
  <rect x="78" y="58" width="644" height="404" rx="28" fill="#171717" stroke="#3f3f46" stroke-width="2"/>
  <rect x="126" y="106" width="130" height="20" rx="10" fill="#60a5fa"/>
  <rect x="126" y="148" width="430" height="24" rx="12" fill="#f8fafc"/>
  <rect x="126" y="188" width="360" height="16" rx="8" fill="#94a3b8"/>
  <rect x="126" y="218" width="500" height="16" rx="8" fill="#475569"/>
  <rect x="126" y="272" width="86" height="34" rx="17" fill="#082f49" stroke="#38bdf8"/>
  <rect x="226" y="272" width="118" height="34" rx="17" fill="#064e3b" stroke="#34d399"/>
  <rect x="358" y="272" width="100" height="34" rx="17" fill="#500724" stroke="#db2777"/>
  <rect x="126" y="342" width="548" height="2" rx="1" fill="#334155"/>
  <rect x="126" y="374" width="110" height="36" rx="18" fill="#262626" stroke="#52525b"/>
  <rect x="250" y="374" width="150" height="36" rx="18" fill="#262626" stroke="#52525b"/>
  <rect x="414" y="374" width="124" height="36" rx="18" fill="#262626" stroke="#52525b"/>
  <rect x="552" y="374" width="82" height="36" rx="18" fill="#262626" stroke="#52525b"/>
</svg>
