<svg xmlns="http://www.w3.org/2000/svg" width="800" height="520" viewBox="0 0 800 520" role="img" aria-label="Interactive charts demo image">
  <rect width="800" height="520" fill="#f0fdf4"/>
  <rect x="82" y="74" width="636" height="372" rx="30" fill="#ffffff" stroke="#bbf7d0" stroke-width="2"/>
  <line x1="150" y1="402" x2="650" y2="402" stroke="#94a3b8" stroke-width="3"/>
  <rect x="180" y="300" width="64" height="102" rx="8" fill="#34c759"/>
  <rect x="276" y="232" width="64" height="170" rx="8" fill="#22d3ee"/>
  <rect x="372" y="326" width="64" height="76" rx="8" fill="#34c759"/>
  <rect x="468" y="190" width="64" height="212" rx="8" fill="#22d3ee"/>
  <rect x="564" y="262" width="64" height="140" rx="8" fill="#34c759"/>
  <circle cx="500" cy="190" r="7" fill="#0a84ff" stroke="#ffffff" stroke-width="3"/>
  <rect x="486" y="116" width="200" height="54" rx="12" fill="#0f172a"/>
  <rect x="504" y="134" width="120" height="11" rx="5" fill="#ffffff"/>
  <rect x="504" y="151" width="80" height="9" rx="4" fill="#22d3ee"/>
  <path d="M500 170 L513 154 L487 154 Z" fill="#0f172a"/>
</svg>
