<svg xmlns="http://www.w3.org/2000/svg" width="800" height="520" viewBox="0 0 800 520" role="img" aria-label="The math engine in your browser demo image">
  <rect width="800" height="520" fill="#f0fdfa"/>
  <rect x="82" y="74" width="636" height="372" rx="30" fill="#ffffff" stroke="#99f6e4" stroke-width="2"/>
  <g transform="translate(190.0,214.2) scale(8.4185)" fill="#0f172a" style="color:#0f172a"><path d="M4.15 7.48C4.15 7.38 4.07 7.36 4.02 7.36C3.93 7.36 3.91 7.42 3.89 7.5C3.54 8.53 2.64 8.53 2.54 8.53C2.04 8.53 1.64 8.23 1.41 7.86C1.11 7.38 1.11 6.72 1.11 6.36L3.9 6.36C4.12 6.36 4.15 6.36 4.15 6.15C4.15 5.16 3.61 4.19 2.36 4.19C1.2 4.19 0.28 5.22 0.28 6.47C0.28 7.81 1.33 8.78 2.48 8.78C3.7 8.78 4.15 7.67 4.15 7.48ZM3.49 6.15L1.12 6.15C1.18 4.66 2.02 4.41 2.36 4.41C3.39 4.41 3.49 5.76 3.49 6.15Z"/><path d="M6.73 5.04L6.73 4.82C6.27 4.82 6.24 4.79 6.24 4.51L6.24 1.95L5.26 2.02L5.26 2.24C5.71 2.24 5.78 2.28 5.78 2.63L5.78 4.51C5.78 4.82 5.7 4.82 5.23 4.82L5.23 5.04L6 5.02C6.25 5.02 6.49 5.03 6.73 5.04ZM6.34 0.81C6.34 0.62 6.18 0.44 5.97 0.44C5.74 0.44 5.6 0.64 5.6 0.81C5.6 1 5.76 1.18 5.97 1.18C6.2 1.18 6.34 0.99 6.34 0.81Z"/><path d="M10.55 2.19C10.51 2.02 10.36 2.02 10.23 2.02L7.88 2.02C7.73 2.02 7.46 2.02 7.24 2.35C7.07 2.63 6.96 2.95 6.97 2.98C6.97 2.98 6.99 3.05 7.07 3.05C7.13 3.05 7.14 3.02 7.16 2.97C7.37 2.43 7.78 2.43 7.92 2.43L8.32 2.43C8.3 3.28 8.14 4.12 8 4.76C7.98 4.87 7.98 4.88 7.99 4.93C8.02 5.06 8.15 5.12 8.24 5.12C8.45 5.12 8.46 4.92 8.48 4.66L8.49 3.98L8.5 2.43L9.29 2.43C9.32 3.47 9.33 3.77 9.45 4.24C9.47 4.34 9.52 4.53 9.63 4.77C9.78 5.08 9.87 5.12 9.98 5.12C10.12 5.12 10.23 4.99 10.19 4.85C10.19 4.81 10.18 4.8 10.12 4.7C9.79 4.19 9.68 3.74 9.63 3.54C9.53 3.17 9.49 2.79 9.47 2.43L10.27 2.43C10.36 2.43 10.61 2.43 10.55 2.19Z"/><path d="M21.59 6.17C21.59 6.06 21.5 5.97 21.39 5.97L18.46 5.97L18.46 3.04C18.46 2.93 18.37 2.84 18.26 2.84C18.15 2.84 18.06 2.93 18.06 3.04L18.06 5.97L15.13 5.97C15.02 5.97 14.93 6.06 14.93 6.17C14.93 6.28 15.02 6.37 15.13 6.37L18.06 6.37L18.06 9.3C18.06 9.41 18.15 9.5 18.26 9.5C18.37 9.5 18.46 9.41 18.46 9.3L18.46 6.37L21.39 6.37C21.5 6.37 21.59 6.28 21.59 6.17Z"/><path d="M29.66 8.67L29.66 8.36L29.34 8.36C28.44 8.36 28.41 8.25 28.41 7.88L28.41 2.27C28.41 2.03 28.41 2.01 28.18 2.01C27.56 2.65 26.68 2.65 26.36 2.65L26.36 2.96C26.56 2.96 27.15 2.96 27.67 2.7L27.67 7.88C27.67 8.24 27.64 8.36 26.74 8.36L26.42 8.36L26.42 8.67C26.77 8.64 27.64 8.64 28.04 8.64C28.44 8.64 29.31 8.64 29.66 8.67Z"/><path d="M41.01 5.2C41.01 5.09 40.92 5 40.81 5L34.55 5C34.44 5 34.35 5.09 34.35 5.2C34.35 5.31 34.44 5.4 34.55 5.4L40.81 5.4C40.92 5.4 41.01 5.31 41.01 5.2ZM41.01 7.14C41.01 7.03 40.92 6.94 40.81 6.94L34.55 6.94C34.44 6.94 34.35 7.03 34.35 7.14C34.35 7.25 34.44 7.34 34.55 7.34L40.81 7.34C40.92 7.34 41.01 7.25 41.01 7.14Z"/><path d="M49.49 5.47C49.49 4.67 49.44 3.87 49.09 3.13C48.63 2.17 47.81 2.01 47.39 2.01C46.79 2.01 46.06 2.27 45.65 3.2C45.33 3.89 45.28 4.67 45.28 5.47C45.28 6.22 45.32 7.12 45.73 7.88C46.16 8.69 46.89 8.89 47.38 8.89C47.92 8.89 48.68 8.68 49.12 7.73C49.44 7.04 49.49 6.26 49.49 5.47ZM48.66 5.35C48.66 6.1 48.66 6.78 48.55 7.42C48.4 8.37 47.83 8.67 47.38 8.67C46.99 8.67 46.4 8.42 46.22 7.46C46.11 6.86 46.11 5.94 46.11 5.35C46.11 4.71 46.11 4.05 46.19 3.51C46.38 2.32 47.13 2.23 47.38 2.23C47.71 2.23 48.37 2.41 48.56 3.4C48.66 3.96 48.66 4.72 48.66 5.35Z"/></g>
</svg>
