<svg xmlns="http://www.w3.org/2000/svg" width="800" height="520" viewBox="0 0 800 520" role="img" aria-label="Publishing pipeline demo image in dark mode">
  <rect width="800" height="520" fill="#000000"/>
  <rect x="78" y="82" width="644" height="356" rx="30" fill="#171717" stroke="#1e3a8a" stroke-width="2"/>
  <rect x="122" y="132" width="150" height="110" rx="20" fill="#083344" stroke="#22d3ee" stroke-width="4"/>
  <rect x="154" y="166" width="86" height="14" rx="7" fill="#f8fafc"/>
  <rect x="154" y="198" width="62" height="14" rx="7" fill="#38bdf8"/>
  <path d="M292 188H392" stroke="#94a3b8" stroke-width="12" stroke-linecap="round"/>
  <path d="M374 164L398 188L374 212" fill="none" stroke="#94a3b8" stroke-width="12" stroke-linecap="round" stroke-linejoin="round"/>
  <rect x="420" y="132" width="150" height="110" rx="20" fill="#064e3b" stroke="#34d399" stroke-width="4"/>
  <rect x="452" y="166" width="82" height="14" rx="7" fill="#dcfce7"/>
  <rect x="452" y="198" width="62" height="14" rx="7" fill="#86efac"/>
  <path d="M590 188H646" stroke="#94a3b8" stroke-width="12" stroke-linecap="round"/>
  <path d="M628 164L652 188L628 212" fill="none" stroke="#94a3b8" stroke-width="12" stroke-linecap="round" stroke-linejoin="round"/>
  <circle cx="674" cy="188" r="34" fill="#60a5fa"/>
  <path d="M658 190L670 202L692 174" fill="none" stroke="#ffffff" stroke-width="10" stroke-linecap="round" stroke-linejoin="round"/>
  <rect x="122" y="302" width="190" height="22" rx="11" fill="#f8fafc"/>
  <rect x="122" y="344" width="482" height="16" rx="8" fill="#64748b"/>
  <rect x="122" y="374" width="390" height="16" rx="8" fill="#475569"/>
</svg>
