<svg xmlns="http://www.w3.org/2000/svg" width="1440" height="900" viewBox="0 0 1440 900" role="img" aria-label="Preview of a TileDown generated website in light mode">
  <rect width="1440" height="900" fill="#f5f5f7"/>
  <rect x="96" y="72" width="1248" height="756" rx="28" fill="#ffffff" stroke="#d8dde8"/>
  <rect x="96" y="72" width="1248" height="76" rx="28" fill="#111827"/>
  <circle cx="140" cy="110" r="10" fill="#f87171"/>
  <circle cx="174" cy="110" r="10" fill="#fbbf24"/>
  <circle cx="208" cy="110" r="10" fill="#34d399"/>
  <rect x="256" y="94" width="616" height="32" rx="16" fill="#1f2937"/>
  <text x="288" y="116" font-family="ui-monospace, SFMono-Regular, Menlo, monospace" font-size="18" fill="#d1d5db">www.tiledown.com</text>
  <rect x="160" y="200" width="500" height="42" rx="8" fill="#0f172a"/>
  <text x="184" y="229" font-family="ui-sans-serif, system-ui, sans-serif" font-size="26" font-weight="700" fill="#ffffff">Markdown source to typed tiles</text>
  <rect x="160" y="274" width="520" height="18" rx="9" fill="#94a3b8"/>
  <rect x="160" y="310" width="420" height="18" rx="9" fill="#cbd5e1"/>
  <rect x="160" y="368" width="364" height="86" rx="16" fill="#ecfeff" stroke="#06b6d4" stroke-width="4"/>
  <text x="188" y="402" font-family="ui-sans-serif, system-ui, sans-serif" font-size="22" font-weight="700" fill="#0f172a">callout tile</text>
  <rect x="188" y="422" width="280" height="16" rx="8" fill="#67e8f9"/>
  <rect x="160" y="496" width="270" height="72" rx="18" fill="#2563eb"/>
  <text x="196" y="541" font-family="ui-sans-serif, system-ui, sans-serif" font-size="22" font-weight="700" fill="#ffffff">counter tile 02</text>
  <rect x="740" y="204" width="424" height="464" rx="24" fill="#0f172a"/>
  <rect x="780" y="248" width="260" height="22" rx="11" fill="#38bdf8"/>
  <rect x="780" y="300" width="316" height="18" rx="9" fill="#64748b"/>
  <rect x="780" y="342" width="256" height="18" rx="9" fill="#64748b"/>
  <rect x="780" y="408" width="84" height="84" rx="16" fill="#34d399"/>
  <rect x="896" y="408" width="84" height="84" rx="16" fill="#f59e0b"/>
  <rect x="1012" y="408" width="84" height="84" rx="16" fill="#f43f5e"/>
  <rect x="780" y="548" width="316" height="18" rx="9" fill="#94a3b8"/>
  <rect x="780" y="592" width="210" height="18" rx="9" fill="#64748b"/>
  <rect x="160" y="636" width="980" height="1" fill="#e5e7eb"/>
  <rect x="160" y="688" width="180" height="40" rx="20" fill="#e0f2fe"/>
  <rect x="364" y="688" width="180" height="40" rx="20" fill="#dcfce7"/>
  <rect x="568" y="688" width="180" height="40" rx="20" fill="#fef3c7"/>
</svg>
